<?xml version="1.0" encoding="UTF-8"?>
<svg xmlns="http://www.w3.org/2000/svg" xmlns:xlink="http://www.w3.org/1999/xlink" width="854" height="480" viewBox="0 0 854 480">
<defs>
<g>
<g id="glyph-0-0">
<path d="M 2.347656 -1.570312 L 2.371094 -1.570312 L 2.371094 0 L 2.828125 0 L 2.828125 -3.53125 L 3.570312 -3.53125 L 3.570312 -3.921875 L -0.132812 -3.921875 L -0.132812 -3.53125 L 0.527344 -3.53125 L 0.527344 -2.199219 C 0.527344 -1.539062 0.953125 -1.191406 1.519531 -1.191406 C 1.9375 -1.191406 2.207031 -1.355469 2.347656 -1.570312 Z M 2.371094 -3.53125 L 2.371094 -2.5 C 2.371094 -1.972656 2.097656 -1.613281 1.59375 -1.613281 C 1.203125 -1.613281 0.984375 -1.789062 0.984375 -2.261719 L 0.984375 -3.53125 Z "/>
</g>
<g id="glyph-0-1">
<path d="M 1.0625 -3.53125 L 1.800781 -3.53125 L 1.800781 -3.921875 L 1.058594 -3.921875 C 0.976562 -4.96875 0.386719 -5.652344 -0.425781 -5.652344 C -1.003906 -5.652344 -1.375 -5.28125 -1.375 -4.820312 C -1.375 -4.601562 -1.296875 -4.40625 -1.179688 -4.285156 L -0.714844 -4.382812 C -0.84375 -4.503906 -0.898438 -4.664062 -0.898438 -4.808594 C -0.898438 -5.066406 -0.714844 -5.25 -0.414062 -5.25 C 0.183594 -5.25 0.566406 -4.613281 0.605469 -3.921875 L -0.132812 -3.921875 L -0.132812 -3.53125 L 0.605469 -3.53125 L 0.605469 0 L 1.0625 0 Z "/>
</g>
<g id="glyph-0-2">
<path d="M 3.292969 -2.585938 L 3.269531 -2.585938 C 3.175781 -2.6875 2.992188 -2.785156 2.75 -2.785156 C 2.445312 -2.785156 2.175781 -2.601562 2.082031 -2.273438 L 2.058594 -2.273438 C 1.96875 -2.566406 1.703125 -2.761719 1.308594 -2.761719 C 0.804688 -2.761719 0.324219 -2.375 0.324219 -1.65625 C 0.324219 -0.890625 0.820312 -0.273438 1.40625 0.0429688 L 1.71875 -0.289062 C 1.117188 -0.609375 0.800781 -1.085938 0.800781 -1.644531 C 0.800781 -2.132812 1.058594 -2.339844 1.351562 -2.339844 C 1.65625 -2.339844 1.851562 -2.144531 1.851562 -1.746094 L 1.851562 -1.167969 L 2.296875 -1.167969 L 2.296875 -1.746094 C 2.296875 -2.164062 2.503906 -2.363281 2.804688 -2.363281 C 3.011719 -2.363281 3.203125 -2.253906 3.292969 -2.164062 L 3.292969 0 L 3.757812 0 L 3.757812 -3.53125 L 4.492188 -3.53125 L 4.492188 -3.921875 L -0.132812 -3.921875 L -0.132812 -3.53125 L 3.292969 -3.53125 Z "/>
</g>
</g>
</defs>
<g fill="rgb(97.647059%, 45.098039%, 8.627451%)" fill-opacity="1">
<use xlink:href="#glyph-0-0" x="30" y="26.416016"/>
<use xlink:href="#glyph-0-1" x="33" y="26.416016"/>
<use xlink:href="#glyph-0-0" x="35" y="26.416016"/>
<use xlink:href="#glyph-0-2" x="38" y="26.416016"/>
</g>
</svg>
