<?xml version="1.0" encoding="UTF-8"?>
<svg xmlns="http://www.w3.org/2000/svg" xmlns:xlink="http://www.w3.org/1999/xlink" width="854" height="480" viewBox="0 0 854 480">
<defs>
<g>
<g id="glyph-0-0">
<path d="M 0.0898438 -2.3125 L 0.0898438 -2.46875 C 0.136719 -2.515625 0.199219 -2.566406 0.269531 -2.628906 C 0.367188 -2.71875 0.457031 -2.808594 0.542969 -2.902344 C 0.710938 -3.085938 0.863281 -3.285156 1 -3.496094 L 1.140625 -3.496094 L 1.140625 -2.558594 L 1.671875 -2.558594 L 1.671875 -2.3125 L 1.140625 -2.3125 L 1.140625 -0.644531 C 1.140625 -0.566406 1.152344 -0.5 1.175781 -0.449219 C 1.214844 -0.367188 1.273438 -0.324219 1.355469 -0.324219 C 1.429688 -0.324219 1.488281 -0.351562 1.539062 -0.402344 C 1.585938 -0.453125 1.636719 -0.523438 1.683594 -0.617188 L 1.816406 -0.550781 C 1.753906 -0.398438 1.675781 -0.273438 1.585938 -0.179688 C 1.425781 -0.0117188 1.230469 0.0742188 1 0.0742188 C 0.871094 0.0742188 0.757812 0.0507812 0.660156 0 C 0.472656 -0.09375 0.378906 -0.265625 0.378906 -0.511719 L 0.378906 -2.3125 Z "/>
</g>
<g id="glyph-0-1">
<path d="M 0.121094 -1.273438 C 0.121094 -1.660156 0.242188 -1.980469 0.480469 -2.242188 C 0.71875 -2.5 1.015625 -2.628906 1.375 -2.628906 C 1.742188 -2.628906 2.042969 -2.496094 2.277344 -2.234375 C 2.511719 -1.96875 2.628906 -1.648438 2.628906 -1.273438 C 2.628906 -0.902344 2.511719 -0.582031 2.28125 -0.316406 C 2.050781 -0.0507812 1.746094 0.0859375 1.375 0.0859375 C 1.011719 0.0859375 0.714844 -0.046875 0.476562 -0.304688 C 0.242188 -0.566406 0.121094 -0.886719 0.121094 -1.273438 Z M 0.9375 -1.273438 C 0.9375 -0.882812 0.957031 -0.609375 1 -0.457031 C 1.0625 -0.214844 1.1875 -0.09375 1.375 -0.09375 C 1.554688 -0.09375 1.671875 -0.1875 1.726562 -0.371094 C 1.785156 -0.554688 1.8125 -0.855469 1.8125 -1.273438 C 1.8125 -1.6875 1.78125 -1.984375 1.722656 -2.171875 C 1.664062 -2.355469 1.550781 -2.449219 1.378906 -2.449219 C 1.191406 -2.449219 1.0625 -2.328125 1 -2.089844 C 0.960938 -1.929688 0.9375 -1.65625 0.9375 -1.273438 Z "/>
</g>
<g id="glyph-0-2">
<path d="M 0.101562 -0.132812 C 0.207031 -0.144531 0.28125 -0.171875 0.324219 -0.207031 C 0.363281 -0.246094 0.386719 -0.320312 0.390625 -0.429688 L 0.394531 -0.589844 L 0.394531 -2.101562 C 0.394531 -2.21875 0.375 -2.296875 0.335938 -2.339844 C 0.296875 -2.378906 0.21875 -2.40625 0.101562 -2.421875 L 0.101562 -2.558594 L 1.15625 -2.558594 L 1.15625 -2.121094 C 1.273438 -2.273438 1.390625 -2.398438 1.503906 -2.488281 C 1.621094 -2.578125 1.753906 -2.625 1.90625 -2.625 C 2.019531 -2.625 2.125 -2.585938 2.214844 -2.511719 C 2.304688 -2.441406 2.351562 -2.332031 2.351562 -2.191406 C 2.351562 -2.082031 2.320312 -1.992188 2.253906 -1.921875 C 2.191406 -1.851562 2.109375 -1.816406 2.003906 -1.816406 C 1.886719 -1.816406 1.785156 -1.871094 1.699219 -1.984375 C 1.613281 -2.09375 1.554688 -2.148438 1.519531 -2.148438 C 1.445312 -2.148438 1.371094 -2.101562 1.296875 -2.011719 C 1.222656 -1.921875 1.183594 -1.789062 1.183594 -1.621094 L 1.183594 -0.570312 C 1.183594 -0.386719 1.210938 -0.269531 1.261719 -0.222656 C 1.316406 -0.175781 1.421875 -0.148438 1.582031 -0.132812 L 1.582031 0 L 0.101562 0 Z "/>
</g>
<g id="glyph-0-3">
<path d="M 1.433594 -2.628906 C 1.667969 -2.628906 1.867188 -2.570312 2.039062 -2.457031 C 2.210938 -2.34375 2.296875 -2.199219 2.296875 -2.019531 C 2.296875 -1.921875 2.261719 -1.839844 2.191406 -1.769531 C 2.125 -1.699219 2.039062 -1.664062 1.933594 -1.664062 C 1.863281 -1.664062 1.800781 -1.679688 1.75 -1.710938 C 1.648438 -1.769531 1.601562 -1.875 1.601562 -2.027344 C 1.601562 -2.042969 1.601562 -2.066406 1.601562 -2.097656 C 1.605469 -2.128906 1.605469 -2.164062 1.605469 -2.199219 C 1.605469 -2.296875 1.582031 -2.363281 1.539062 -2.402344 C 1.492188 -2.4375 1.4375 -2.453125 1.378906 -2.453125 C 1.207031 -2.453125 1.085938 -2.359375 1.011719 -2.171875 C 0.941406 -1.984375 0.902344 -1.765625 0.902344 -1.523438 C 0.902344 -1.175781 0.972656 -0.882812 1.109375 -0.648438 C 1.246094 -0.414062 1.433594 -0.296875 1.664062 -0.296875 C 1.8125 -0.296875 1.9375 -0.328125 2.039062 -0.394531 C 2.101562 -0.433594 2.175781 -0.5 2.269531 -0.601562 L 2.371094 -0.507812 C 2.191406 -0.257812 1.976562 -0.0820312 1.734375 0.0117188 C 1.605469 0.0585938 1.472656 0.0859375 1.328125 0.0859375 C 0.972656 0.0859375 0.679688 -0.0429688 0.453125 -0.296875 C 0.226562 -0.554688 0.113281 -0.863281 0.113281 -1.230469 C 0.113281 -1.617188 0.234375 -1.949219 0.472656 -2.21875 C 0.710938 -2.492188 1.03125 -2.628906 1.433594 -2.628906 Z "/>
</g>
<g id="glyph-0-4">
<path d="M 0.0898438 -0.132812 C 0.191406 -0.144531 0.265625 -0.171875 0.3125 -0.214844 C 0.359375 -0.257812 0.386719 -0.34375 0.386719 -0.46875 L 0.386719 -3.296875 C 0.386719 -3.410156 0.367188 -3.484375 0.324219 -3.53125 C 0.285156 -3.574219 0.207031 -3.605469 0.0898438 -3.617188 L 0.0898438 -3.753906 L 1.164062 -3.753906 L 1.164062 -2.191406 C 1.277344 -2.328125 1.398438 -2.4375 1.523438 -2.511719 C 1.648438 -2.585938 1.789062 -2.625 1.949219 -2.625 C 2.160156 -2.625 2.335938 -2.5625 2.476562 -2.4375 C 2.617188 -2.3125 2.6875 -2.101562 2.6875 -1.804688 L 2.6875 -0.46875 C 2.6875 -0.34375 2.707031 -0.261719 2.75 -0.222656 C 2.792969 -0.183594 2.863281 -0.15625 2.960938 -0.132812 L 2.960938 0 L 1.65625 0 L 1.65625 -0.132812 C 1.757812 -0.152344 1.824219 -0.179688 1.859375 -0.214844 C 1.898438 -0.25 1.914062 -0.328125 1.914062 -0.449219 L 1.914062 -1.792969 C 1.914062 -1.917969 1.902344 -2.015625 1.878906 -2.078125 C 1.835938 -2.191406 1.746094 -2.25 1.621094 -2.25 C 1.523438 -2.25 1.425781 -2.203125 1.324219 -2.117188 C 1.222656 -2.027344 1.167969 -1.964844 1.167969 -1.933594 L 1.167969 -0.449219 C 1.167969 -0.328125 1.1875 -0.25 1.222656 -0.214844 C 1.257812 -0.179688 1.328125 -0.152344 1.425781 -0.132812 L 1.425781 0 L 0.0898438 0 Z "/>
</g>
</g>
</defs>
<g fill="rgb(100%, 100%, 100%)" fill-opacity="1">
<use xlink:href="#glyph-0-0" x="30" y="24.166992"/>
<use xlink:href="#glyph-0-1" x="32" y="24.166992"/>
<use xlink:href="#glyph-0-2" x="35" y="24.166992"/>
<use xlink:href="#glyph-0-3" x="37" y="24.166992"/>
<use xlink:href="#glyph-0-4" x="39" y="24.166992"/>
</g>
</svg>
