<?xml version="1.0" encoding="UTF-8"?>
<svg xmlns="http://www.w3.org/2000/svg" xmlns:xlink="http://www.w3.org/1999/xlink" width="854" height="480" viewBox="0 0 854 480">
<defs>
<g>
<g id="glyph-0-0">
<path d="M 1.902344 0.078125 C 1 0.03125 0.703125 -0.246094 0.703125 -0.570312 C 0.703125 -0.832031 0.941406 -1.03125 1.316406 -1.03125 C 1.578125 -1.03125 1.707031 -0.898438 1.707031 -0.734375 C 1.707031 -0.613281 1.640625 -0.507812 1.527344 -0.417969 L 1.820312 -0.25 C 1.933594 -0.351562 2.035156 -0.511719 2.035156 -0.71875 C 2.035156 -1.035156 1.800781 -1.328125 1.304688 -1.328125 C 1.160156 -1.328125 1.027344 -1.304688 0.910156 -1.261719 C 0.765625 -1.347656 0.65625 -1.488281 0.65625 -1.632812 C 0.65625 -1.746094 0.722656 -1.839844 0.933594 -1.839844 L 1.878906 -1.839844 L 1.878906 -2.570312 L 2.351562 -2.570312 L 2.351562 -2.851562 L -0.0976562 -2.851562 L -0.0976562 -2.570312 L 1.554688 -2.570312 L 1.554688 -2.128906 L 0.859375 -2.128906 C 0.511719 -2.128906 0.320312 -1.9375 0.320312 -1.675781 C 0.320312 -1.429688 0.464844 -1.230469 0.644531 -1.121094 C 0.460938 -0.980469 0.359375 -0.785156 0.359375 -0.578125 C 0.359375 -0.0195312 0.898438 0.308594 1.761719 0.367188 Z "/>
</g>
<g id="glyph-0-1">
<path d="M -0.105469 -3.796875 C -0.246094 -3.796875 -0.355469 -3.683594 -0.355469 -3.535156 C -0.355469 -3.398438 -0.246094 -3.292969 -0.105469 -3.292969 C 0.0390625 -3.292969 0.148438 -3.398438 0.148438 -3.535156 C 0.148438 -3.683594 0.0390625 -3.796875 -0.105469 -3.796875 Z M -1.417969 -3.632812 L -1.753906 -3.472656 C -1.320312 -3.136719 -0.972656 -2.867188 -0.667969 -2.675781 L -0.417969 -2.808594 L -0.773438 -3.960938 L -1.128906 -3.910156 L -0.609375 -2.839844 L -0.644531 -2.828125 Z "/>
</g>
<g id="glyph-0-2">
<path d="M 0.890625 0 L 1.230469 0 L 1.230469 -2.851562 L 0.890625 -2.851562 Z "/>
</g>
</g>
</defs>
<g fill="rgb(100%, 100%, 100%)" fill-opacity="1">
<use xlink:href="#glyph-0-0" x="30" y="24.666992"/>
<use xlink:href="#glyph-0-1" x="32" y="24.666992"/>
<use xlink:href="#glyph-0-2" x="32" y="24.666992"/>
</g>
</svg>
