<?xml version="1.0" encoding="UTF-8"?>
<svg xmlns="http://www.w3.org/2000/svg" xmlns:xlink="http://www.w3.org/1999/xlink" width="854" height="480" viewBox="0 0 854 480">
<defs>
<g>
<g id="glyph-0-0">
<path d="M 2.972656 -0.785156 L 1.253906 -2.269531 L 1.253906 -4.496094 L 2.980469 -4.496094 L 2.980469 -3.1875 C 2.980469 -2.753906 2.777344 -2.558594 2.441406 -2.417969 L 2.894531 -2.03125 C 3.34375 -2.253906 3.5625 -2.597656 3.5625 -3.179688 L 3.5625 -4.496094 L 4.433594 -4.496094 L 4.433594 -4.992188 L -0.171875 -4.992188 L -0.171875 -4.496094 L 0.667969 -4.496094 L 0.667969 -2.03125 L 2.644531 -0.328125 C 2.824219 -0.179688 2.933594 -0.0234375 2.933594 0.171875 C 2.933594 0.398438 2.808594 0.597656 2.667969 0.753906 L 2.667969 0.792969 L 3.296875 0.792969 C 3.421875 0.628906 3.523438 0.390625 3.523438 0.148438 C 3.523438 -0.210938 3.328125 -0.464844 2.972656 -0.785156 Z "/>
</g>
<g id="glyph-0-1">
<path d="M 5.03125 -2.308594 C 5.03125 -1.664062 4.472656 -1.414062 3.910156 -1.515625 L 4.003906 -0.980469 C 4.835938 -0.863281 5.636719 -1.375 5.636719 -2.316406 C 5.636719 -3.125 5.039062 -3.648438 4.332031 -3.648438 C 3.796875 -3.648438 3.46875 -3.398438 3.320312 -3.195312 L 3.289062 -3.195312 L 3.289062 -4.496094 L 6.160156 -4.496094 L 6.160156 -4.992188 L -0.171875 -4.992188 L -0.171875 -4.496094 L 2.707031 -4.496094 L 2.707031 -2.488281 C 2.707031 -1.90625 2.332031 -1.507812 1.78125 -1.507812 C 1.292969 -1.507812 0.964844 -1.851562 0.964844 -2.316406 C 0.964844 -2.972656 1.523438 -3.210938 2.085938 -3.117188 L 1.992188 -3.65625 C 1.152344 -3.765625 0.351562 -3.25 0.351562 -2.308594 C 0.351562 -1.515625 0.964844 -0.980469 1.671875 -0.980469 C 2.214844 -0.980469 2.527344 -1.238281 2.675781 -1.421875 L 2.707031 -1.421875 L 2.707031 0 L 3.289062 0 L 3.289062 -2.140625 C 3.289062 -2.722656 3.664062 -3.117188 4.214844 -3.117188 C 4.699219 -3.117188 5.03125 -2.792969 5.03125 -2.308594 Z "/>
</g>
<g id="glyph-0-2">
<path d="M 1.429688 0.0546875 L 1.898438 -0.296875 C 1.40625 -0.660156 1.003906 -1.207031 1.003906 -1.984375 C 1.003906 -2.558594 1.359375 -2.878906 1.882812 -2.878906 L 2.972656 -2.878906 L 2.972656 0 L 3.554688 0 L 3.554688 -4.496094 L 4.496094 -4.496094 L 4.496094 -4.992188 L -0.171875 -4.992188 L -0.171875 -4.496094 L 2.972656 -4.496094 L 2.972656 -3.40625 L 1.773438 -3.40625 C 1.003906 -3.40625 0.398438 -2.871094 0.398438 -1.992188 C 0.398438 -1.066406 0.878906 -0.367188 1.429688 0.0546875 Z "/>
</g>
<g id="glyph-0-3">
<path d="M 1.351562 -4.496094 L 2.292969 -4.496094 L 2.292969 -4.992188 L -0.171875 -4.992188 L -0.171875 -4.496094 L 0.769531 -4.496094 L 0.769531 0 L 1.351562 0 Z "/>
</g>
<g id="glyph-0-4">
<rect x="0" y="0" width="0" height="0" mask="url(#mask-0)"/>
</g>
<g id="glyph-0-5">
<path d="M 3.648438 0 L 3.648438 -4.496094 L 4.582031 -4.496094 L 4.582031 -4.992188 L -0.171875 -4.992188 L -0.171875 -4.496094 L 3.054688 -4.496094 L 3.054688 -2.417969 C 3.054688 -2.214844 3.011719 -2.03125 2.917969 -1.867188 L 1.367188 -3.140625 C 1.546875 -3.257812 1.765625 -3.320312 2 -3.320312 C 2.167969 -3.320312 2.347656 -3.296875 2.519531 -3.234375 L 2.496094 -3.78125 C 2.332031 -3.828125 2.148438 -3.84375 1.960938 -3.84375 C 1.121094 -3.84375 0.359375 -3.234375 0.359375 -2.308594 C 0.359375 -1.429688 1.027344 -0.808594 1.867188 -0.808594 C 2.464844 -0.808594 2.847656 -1.089844 3.023438 -1.3125 L 3.054688 -1.3125 L 3.054688 0 Z M 1.945312 -1.328125 C 1.328125 -1.328125 0.941406 -1.757812 0.941406 -2.324219 C 0.941406 -2.527344 0.996094 -2.699219 1.082031 -2.847656 L 2.652344 -1.554688 C 2.464844 -1.414062 2.222656 -1.328125 1.945312 -1.328125 Z "/>
</g>
<g id="glyph-0-6">
<path d="M 4.191406 -3.289062 L 4.160156 -3.289062 C 4.042969 -3.421875 3.8125 -3.546875 3.5 -3.546875 C 3.109375 -3.546875 2.769531 -3.3125 2.652344 -2.894531 L 2.621094 -2.894531 C 2.503906 -3.265625 2.167969 -3.515625 1.664062 -3.515625 C 1.027344 -3.515625 0.414062 -3.023438 0.414062 -2.109375 C 0.414062 -1.136719 1.042969 -0.351562 1.789062 0.0546875 L 2.183594 -0.367188 C 1.421875 -0.777344 1.019531 -1.382812 1.019531 -2.09375 C 1.019531 -2.714844 1.34375 -2.980469 1.71875 -2.980469 C 2.109375 -2.980469 2.355469 -2.730469 2.355469 -2.222656 L 2.355469 -1.484375 L 2.925781 -1.484375 L 2.925781 -2.222656 C 2.925781 -2.753906 3.1875 -3.011719 3.570312 -3.011719 C 3.835938 -3.011719 4.074219 -2.871094 4.191406 -2.753906 L 4.191406 0 L 4.78125 0 L 4.78125 -4.496094 L 5.714844 -4.496094 L 5.714844 -4.992188 L -0.171875 -4.992188 L -0.171875 -4.496094 L 4.191406 -4.496094 Z "/>
</g>
<g id="glyph-0-7">
<path d="M 2.988281 -2 L 3.019531 -2 L 3.019531 0 L 3.601562 0 L 3.601562 -4.496094 L 4.542969 -4.496094 L 4.542969 -4.992188 L -0.171875 -4.992188 L -0.171875 -4.496094 L 0.667969 -4.496094 L 0.667969 -2.800781 C 0.667969 -1.960938 1.214844 -1.515625 1.9375 -1.515625 C 2.464844 -1.515625 2.808594 -1.726562 2.988281 -2 Z M 3.019531 -4.496094 L 3.019531 -3.179688 C 3.019531 -2.511719 2.667969 -2.054688 2.03125 -2.054688 C 1.53125 -2.054688 1.253906 -2.277344 1.253906 -2.878906 L 1.253906 -4.496094 Z "/>
</g>
<g id="glyph-0-8">
<path d="M 0.367188 -2.03125 C 0.367188 -1.089844 1.152344 -0.320312 2.238281 -0.320312 C 3.34375 -0.320312 4.097656 -1.027344 4.097656 -1.929688 C 4.097656 -2.769531 3.460938 -3.242188 2.996094 -3.445312 L 2.996094 -4.496094 L 4.636719 -4.496094 L 4.636719 -4.992188 L -0.171875 -4.992188 L -0.171875 -4.496094 L 2.402344 -4.496094 L 2.402344 -3.609375 L 1.5 -3.328125 C 0.746094 -3.101562 0.367188 -2.707031 0.367188 -2.03125 Z M 2.167969 -0.855469 C 1.382812 -0.855469 0.964844 -1.398438 0.964844 -1.9375 C 0.964844 -2.378906 1.121094 -2.660156 1.875 -2.878906 L 2.496094 -3.0625 C 2.878906 -2.980469 3.507812 -2.644531 3.507812 -1.976562 C 3.507812 -1.382812 3.085938 -0.855469 2.167969 -0.855469 Z "/>
</g>
<g id="glyph-1-0">
<rect x="0" y="0" width="0" height="0" mask="url(#mask-1)"/>
</g>
<g id="glyph-1-1">
<path d="M 0.339844 -2.230469 L 2.230469 -2.230469 L 2.230469 -1.328125 L 0.339844 -1.328125 Z "/>
</g>
<g id="glyph-1-2">
<path d="M 1.839844 -2.925781 C 1.691406 -2.925781 1.597656 -2.902344 1.558594 -2.855469 C 1.515625 -2.808594 1.488281 -2.734375 1.472656 -2.628906 C 1.464844 -2.566406 1.457031 -2.472656 1.449219 -2.355469 C 1.441406 -2.238281 1.4375 -2.113281 1.4375 -1.976562 C 1.4375 -1.707031 1.445312 -1.472656 1.453125 -1.273438 C 1.464844 -1.074219 1.484375 -0.902344 1.511719 -0.753906 C 1.542969 -0.574219 1.597656 -0.417969 1.671875 -0.292969 C 1.746094 -0.167969 1.863281 -0.105469 2.019531 -0.105469 C 2.242188 -0.105469 2.382812 -0.214844 2.449219 -0.4375 C 2.488281 -0.574219 2.511719 -0.851562 2.511719 -1.269531 C 2.511719 -1.898438 2.457031 -2.332031 2.351562 -2.570312 C 2.246094 -2.804688 2.074219 -2.925781 1.839844 -2.925781 Z M 3.652344 -5.144531 C 3.105469 -5.050781 2.65625 -4.832031 2.3125 -4.492188 C 1.964844 -4.152344 1.726562 -3.71875 1.589844 -3.1875 L 1.628906 -3.160156 C 1.71875 -3.191406 1.796875 -3.210938 1.863281 -3.226562 C 1.992188 -3.257812 2.125 -3.273438 2.261719 -3.273438 C 2.644531 -3.273438 2.980469 -3.144531 3.261719 -2.890625 C 3.546875 -2.632812 3.6875 -2.242188 3.6875 -1.710938 C 3.6875 -1.121094 3.515625 -0.667969 3.175781 -0.355469 C 2.832031 -0.046875 2.441406 0.109375 1.996094 0.109375 C 1.503906 0.109375 1.082031 -0.0859375 0.734375 -0.476562 C 0.386719 -0.867188 0.210938 -1.40625 0.210938 -2.097656 C 0.210938 -3.042969 0.5625 -3.8125 1.261719 -4.414062 C 1.898438 -4.957031 2.695312 -5.269531 3.652344 -5.347656 Z "/>
</g>
</g>
<image id="source-9" x="0" y="0" width="0" height="0"/>
<mask id="mask-0">
<use xlink:href="#source-9"/>
</mask>
<image id="source-12" x="0" y="0" width="0" height="0"/>
<mask id="mask-1">
<use xlink:href="#source-12"/>
</mask>
</defs>
<g fill="rgb(100%, 100%, 100%)" fill-opacity="1">
<use xlink:href="#glyph-0-0" x="30" y="28.166016"/>
<use xlink:href="#glyph-0-1" x="34" y="28.166016"/>
<use xlink:href="#glyph-0-2" x="40" y="28.166016"/>
<use xlink:href="#glyph-0-3" x="44" y="28.166016"/>
<use xlink:href="#glyph-0-4" x="46" y="28.166016"/>
<use xlink:href="#glyph-0-1" x="48" y="28.166016"/>
<use xlink:href="#glyph-0-3" x="54" y="28.166016"/>
<use xlink:href="#glyph-0-4" x="56" y="28.166016"/>
<use xlink:href="#glyph-0-5" x="58" y="28.166016"/>
<use xlink:href="#glyph-0-6" x="62" y="28.166016"/>
</g>
<g fill="rgb(100%, 100%, 100%)" fill-opacity="1">
<use xlink:href="#glyph-1-0" x="68" y="28.166016"/>
<use xlink:href="#glyph-1-1" x="70" y="28.166016"/>
<use xlink:href="#glyph-1-0" x="73" y="28.166016"/>
</g>
<g fill="rgb(100%, 100%, 100%)" fill-opacity="1">
<use xlink:href="#glyph-0-7" x="75" y="28.166016"/>
<use xlink:href="#glyph-0-3" x="79" y="28.166016"/>
<use xlink:href="#glyph-0-8" x="81" y="28.166016"/>
</g>
<g fill="rgb(100%, 100%, 100%)" fill-opacity="1">
<use xlink:href="#glyph-1-0" x="85" y="28.166016"/>
<use xlink:href="#glyph-1-2" x="87" y="28.166016"/>
</g>
</svg>
