<?xml version="1.0" encoding="UTF-8"?>
<svg xmlns="http://www.w3.org/2000/svg" xmlns:xlink="http://www.w3.org/1999/xlink" width="854" height="480" viewBox="0 0 854 480">
<defs>
<g>
<g id="glyph-0-0">
<path d="M 2.183594 -1.308594 L 1.652344 -2.597656 L 1.605469 -2.597656 L 1.105469 -1.308594 Z M 0.101562 -0.140625 C 0.234375 -0.148438 0.34375 -0.210938 0.421875 -0.324219 C 0.476562 -0.394531 0.550781 -0.550781 0.648438 -0.789062 L 1.882812 -3.832031 L 2.039062 -3.832031 L 3.277344 -0.910156 C 3.417969 -0.582031 3.519531 -0.371094 3.589844 -0.277344 C 3.65625 -0.183594 3.753906 -0.136719 3.882812 -0.140625 L 3.882812 0 L 2.082031 0 L 2.082031 -0.140625 C 2.265625 -0.148438 2.382812 -0.164062 2.441406 -0.1875 C 2.496094 -0.210938 2.527344 -0.269531 2.527344 -0.367188 C 2.527344 -0.410156 2.511719 -0.476562 2.480469 -0.5625 C 2.464844 -0.617188 2.441406 -0.679688 2.410156 -0.753906 L 2.269531 -1.089844 L 1.019531 -1.089844 C 0.9375 -0.871094 0.886719 -0.726562 0.863281 -0.660156 C 0.8125 -0.515625 0.789062 -0.414062 0.789062 -0.347656 C 0.789062 -0.269531 0.84375 -0.210938 0.949219 -0.171875 C 1.011719 -0.152344 1.109375 -0.144531 1.234375 -0.140625 L 1.234375 0 L 0.101562 0 Z "/>
</g>
<g id="glyph-0-1">
<path d="M 0.0742188 -0.132812 C 0.1875 -0.140625 0.273438 -0.167969 0.320312 -0.207031 C 0.371094 -0.25 0.394531 -0.335938 0.394531 -0.46875 L 0.394531 -2.277344 L 0.0742188 -2.277344 L 0.0742188 -2.519531 L 0.394531 -2.519531 L 0.394531 -2.726562 C 0.394531 -2.984375 0.4375 -3.199219 0.519531 -3.363281 C 0.671875 -3.675781 0.957031 -3.832031 1.371094 -3.832031 C 1.589844 -3.832031 1.777344 -3.78125 1.929688 -3.679688 C 2.082031 -3.578125 2.160156 -3.445312 2.160156 -3.28125 C 2.160156 -3.179688 2.128906 -3.097656 2.0625 -3.03125 C 2 -2.96875 1.914062 -2.9375 1.808594 -2.9375 C 1.71875 -2.9375 1.640625 -2.96875 1.578125 -3.023438 C 1.515625 -3.082031 1.484375 -3.152344 1.484375 -3.234375 C 1.484375 -3.296875 1.503906 -3.359375 1.542969 -3.425781 C 1.585938 -3.496094 1.605469 -3.535156 1.605469 -3.550781 C 1.605469 -3.597656 1.589844 -3.625 1.558594 -3.636719 C 1.523438 -3.648438 1.488281 -3.65625 1.453125 -3.65625 C 1.363281 -3.65625 1.292969 -3.628906 1.242188 -3.578125 C 1.195312 -3.527344 1.167969 -3.414062 1.167969 -3.238281 L 1.167969 -2.519531 L 1.652344 -2.519531 L 1.652344 -2.277344 L 1.167969 -2.277344 L 1.167969 -0.570312 C 1.167969 -0.378906 1.195312 -0.261719 1.25 -0.21875 C 1.304688 -0.175781 1.429688 -0.144531 1.621094 -0.132812 L 1.621094 0 L 0.0742188 0 Z "/>
</g>
<g id="glyph-0-2">
<path d="M 0.0898438 -2.3125 L 0.0898438 -2.46875 C 0.136719 -2.515625 0.199219 -2.566406 0.269531 -2.628906 C 0.367188 -2.71875 0.457031 -2.808594 0.542969 -2.902344 C 0.710938 -3.085938 0.863281 -3.285156 1 -3.496094 L 1.140625 -3.496094 L 1.140625 -2.558594 L 1.671875 -2.558594 L 1.671875 -2.3125 L 1.140625 -2.3125 L 1.140625 -0.644531 C 1.140625 -0.566406 1.152344 -0.5 1.175781 -0.449219 C 1.214844 -0.367188 1.273438 -0.324219 1.355469 -0.324219 C 1.429688 -0.324219 1.488281 -0.351562 1.539062 -0.402344 C 1.585938 -0.453125 1.636719 -0.523438 1.683594 -0.617188 L 1.816406 -0.550781 C 1.753906 -0.398438 1.675781 -0.273438 1.585938 -0.179688 C 1.425781 -0.0117188 1.230469 0.0742188 1 0.0742188 C 0.871094 0.0742188 0.757812 0.0507812 0.660156 0 C 0.472656 -0.09375 0.378906 -0.265625 0.378906 -0.511719 L 0.378906 -2.3125 Z "/>
</g>
<g id="glyph-0-3">
<path d="M 0.125 -1.273438 C 0.125 -1.703125 0.238281 -2.03125 0.464844 -2.269531 C 0.691406 -2.503906 0.964844 -2.625 1.285156 -2.625 C 1.46875 -2.625 1.640625 -2.574219 1.800781 -2.480469 C 1.960938 -2.382812 2.085938 -2.25 2.171875 -2.082031 C 2.238281 -1.953125 2.285156 -1.785156 2.308594 -1.582031 C 2.320312 -1.484375 2.328125 -1.414062 2.328125 -1.363281 L 0.910156 -1.363281 C 0.921875 -1.140625 0.960938 -0.945312 1.019531 -0.785156 C 1.128906 -0.480469 1.320312 -0.324219 1.59375 -0.324219 C 1.722656 -0.324219 1.84375 -0.367188 1.960938 -0.449219 C 2.03125 -0.496094 2.121094 -0.578125 2.222656 -0.695312 L 2.351562 -0.617188 C 2.179688 -0.335938 1.980469 -0.136719 1.753906 -0.0273438 C 1.609375 0.0429688 1.441406 0.078125 1.25 0.078125 C 0.976562 0.078125 0.722656 -0.0273438 0.484375 -0.246094 C 0.246094 -0.460938 0.125 -0.804688 0.125 -1.273438 Z M 1.644531 -1.566406 C 1.640625 -1.894531 1.613281 -2.125 1.566406 -2.253906 C 1.519531 -2.382812 1.425781 -2.449219 1.285156 -2.449219 C 1.140625 -2.449219 1.042969 -2.375 0.988281 -2.222656 C 0.933594 -2.074219 0.90625 -1.855469 0.898438 -1.566406 Z "/>
</g>
<g id="glyph-0-4">
<path d="M 0.101562 -0.132812 C 0.207031 -0.144531 0.28125 -0.171875 0.324219 -0.207031 C 0.363281 -0.246094 0.386719 -0.320312 0.390625 -0.429688 L 0.394531 -0.589844 L 0.394531 -2.101562 C 0.394531 -2.21875 0.375 -2.296875 0.335938 -2.339844 C 0.296875 -2.378906 0.21875 -2.40625 0.101562 -2.421875 L 0.101562 -2.558594 L 1.15625 -2.558594 L 1.15625 -2.121094 C 1.273438 -2.273438 1.390625 -2.398438 1.503906 -2.488281 C 1.621094 -2.578125 1.753906 -2.625 1.90625 -2.625 C 2.019531 -2.625 2.125 -2.585938 2.214844 -2.511719 C 2.304688 -2.441406 2.351562 -2.332031 2.351562 -2.191406 C 2.351562 -2.082031 2.320312 -1.992188 2.253906 -1.921875 C 2.191406 -1.851562 2.109375 -1.816406 2.003906 -1.816406 C 1.886719 -1.816406 1.785156 -1.871094 1.699219 -1.984375 C 1.613281 -2.09375 1.554688 -2.148438 1.519531 -2.148438 C 1.445312 -2.148438 1.371094 -2.101562 1.296875 -2.011719 C 1.222656 -1.921875 1.183594 -1.789062 1.183594 -1.621094 L 1.183594 -0.570312 C 1.183594 -0.386719 1.210938 -0.269531 1.261719 -0.222656 C 1.316406 -0.175781 1.421875 -0.148438 1.582031 -0.132812 L 1.582031 0 L 0.101562 0 Z "/>
</g>
</g>
</defs>
<g fill="rgb(100%, 100%, 100%)" fill-opacity="1">
<use xlink:href="#glyph-0-0" x="30" y="24.166992"/>
<use xlink:href="#glyph-0-1" x="34" y="24.166992"/>
<use xlink:href="#glyph-0-2" x="36" y="24.166992"/>
<use xlink:href="#glyph-0-3" x="38" y="24.166992"/>
<use xlink:href="#glyph-0-4" x="40" y="24.166992"/>
</g>
</svg>
